<?xml version="1.0" encoding="UTF-8"?>
<svg version="1.1" xmlns="http://www.w3.org/2000/svg" width="831" height="127">
<path d="M0 0 C14.025 -0.103125 28.05 -0.20625 42.5 -0.3125 C46.91697266 -0.35802002 51.33394531 -0.40354004 55.88476562 -0.45043945 C61.30761719 -0.47302246 61.30761719 -0.47302246 63.85192871 -0.47721863 C65.61664139 -0.4848615 67.38132909 -0.50237434 69.14587402 -0.52787781 C71.83012754 -0.56471114 74.51279565 -0.56952271 77.19726562 -0.56762695 C77.97415993 -0.58561749 78.75105423 -0.60360804 79.55149078 -0.62214375 C85.46825786 -0.56655728 89.38119329 1.34342889 94 5 C100.42287598 11.92994513 100.37277321 17.64135135 100.37060547 26.84448242 C100.37497953 28.9277519 100.41132556 31.00890176 100.44921875 33.09179688 C100.45308594 34.41115234 100.45695312 35.73050781 100.4609375 37.08984375 C100.46915527 38.29503662 100.47737305 39.50022949 100.48583984 40.74194336 C99.91029797 44.60154451 98.75396021 46.28292605 96 49 C95.34 49 94.68 49 94 49 C94 49.66 94 50.32 94 51 C94.61875 51.268125 95.2375 51.53625 95.875 51.8125 C98 53 98 53 100 56 C100.43303669 60.19407248 100.41408795 64.38946267 100.42553711 68.60424805 C100.4373641 70.66383341 100.48648156 72.72035019 100.53710938 74.77929688 C100.57847192 82.44640848 100.3465888 88.19066895 95 94 C92.4375 96.375 92.4375 96.375 90 98 C89.46191711 98.3588327 88.92383423 98.71766541 88.3694458 99.08737183 C84.84912585 100.44327673 81.36941329 100.26086389 77.65136719 100.22705078 C76.79843708 100.22729185 75.94550697 100.22753292 75.0667305 100.2277813 C72.31000533 100.22629034 69.5535517 100.21106754 66.796875 100.1953125 C65.09326304 100.19237139 63.38964928 100.19033137 61.68603516 100.18920898 C55.37399585 100.17872952 49.06199525 100.15080706 42.75 100.125 C28.6425 100.08375 14.535 100.0425 0 100 C0 67 0 34 0 0 Z M20 20 C20 26.6 20 33.2 20 40 C39.8 40 59.6 40 80 40 C80 33.4 80 26.8 80 20 C60.2 20 40.4 20 20 20 Z M20 60 C20 66.6 20 73.2 20 80 C39.8 80 59.6 80 80 80 C80 73.4 80 66.8 80 60 C60.2 60 40.4 60 20 60 Z " fill="#010101" transform="translate(387,16)"/>
<path d="M0 0 C1.25908676 -0.00043808 1.25908676 -0.00043808 2.54360962 -0.00088501 C5.3140095 0.00050669 8.08413937 0.01606039 10.85449219 0.03173828 C12.77691501 0.03546898 14.69933973 0.03831568 16.62176514 0.04031372 C21.67868307 0.0479457 26.7354859 0.06759051 31.7923584 0.08972168 C36.95367882 0.11018944 42.11501787 0.11931743 47.27636719 0.12939453 C57.40142586 0.15083678 67.52636894 0.18601543 77.65136719 0.22705078 C77.65136719 6.82705078 77.65136719 13.42705078 77.65136719 20.22705078 C51.25136719 20.22705078 24.85136719 20.22705078 -2.34863281 20.22705078 C-2.34863281 26.82705078 -2.34863281 33.42705078 -2.34863281 40.22705078 C24.05136719 40.22705078 50.45136719 40.22705078 77.65136719 40.22705078 C77.65136719 46.82705078 77.65136719 53.42705078 77.65136719 60.22705078 C51.25136719 60.22705078 24.85136719 60.22705078 -2.34863281 60.22705078 C-2.34863281 66.82705078 -2.34863281 73.42705078 -2.34863281 80.22705078 C24.05136719 80.22705078 50.45136719 80.22705078 77.65136719 80.22705078 C77.65136719 86.82705078 77.65136719 93.42705078 77.65136719 100.22705078 C66.57654598 100.34017993 55.50211087 100.4318409 44.42684174 100.48611164 C39.28369108 100.51216382 34.14095752 100.5474819 28.99804688 100.60424805 C24.03133567 100.65872394 19.06502471 100.68850425 14.09803772 100.701437 C12.20664676 100.71064894 10.31527678 100.72863794 8.42405701 100.75570107 C5.76693023 100.79219915 3.11144018 100.79698758 0.45410156 100.79467773 C-0.32129974 100.81265411 -1.09670105 100.83063049 -1.89559937 100.84915161 C-7.81454723 100.79377178 -11.7279406 98.8851146 -16.34863281 95.22705078 C-21.15359523 90.04274922 -22.59474379 86.3507507 -22.6550293 79.29052734 C-22.66335281 78.6005365 -22.67167633 77.91054565 -22.68025208 77.199646 C-22.70431337 74.92226484 -22.71312047 72.64517052 -22.71972656 70.36767578 C-22.72869779 68.77829912 -22.73781972 67.18892331 -22.74708557 65.59954834 C-22.76356896 62.26735383 -22.77127414 58.9352597 -22.77416992 55.60302734 C-22.77954474 51.34819619 -22.81718913 47.09431849 -22.86291409 42.83975601 C-22.89276935 39.55560937 -22.89989534 36.27168963 -22.90089607 32.98741913 C-22.90508374 31.41981401 -22.91745945 29.8522073 -22.93841362 28.28473663 C-23.13420626 12.36798575 -23.13420626 12.36798575 -17.34863281 6.22705078 C-14.78613281 3.85205078 -14.78613281 3.85205078 -12.34863281 2.22705078 C-11.81054993 1.86821808 -11.27246704 1.50938538 -10.71807861 1.13967896 C-7.19780052 -0.21620982 -3.7180365 -0.03385076 0 0 Z " fill="#000000" transform="translate(244.3486328125,15.77294921875)"/>
<path d="M0 0 C1.25908676 -0.00043808 1.25908676 -0.00043808 2.54360962 -0.00088501 C5.3140095 0.00050669 8.08413937 0.01606039 10.85449219 0.03173828 C12.77691501 0.03546898 14.69933973 0.03831568 16.62176514 0.04031372 C21.67868307 0.0479457 26.7354859 0.06759051 31.7923584 0.08972168 C36.95367882 0.11018944 42.11501787 0.11931743 47.27636719 0.12939453 C57.40142586 0.15083678 67.52636894 0.18601543 77.65136719 0.22705078 C77.65136719 6.82705078 77.65136719 13.42705078 77.65136719 20.22705078 C51.25136719 20.22705078 24.85136719 20.22705078 -2.34863281 20.22705078 C-2.34863281 40.02705078 -2.34863281 59.82705078 -2.34863281 80.22705078 C17.45136719 80.22705078 37.25136719 80.22705078 57.65136719 80.22705078 C57.65136719 73.62705078 57.65136719 67.02705078 57.65136719 60.22705078 C44.45136719 60.22705078 31.25136719 60.22705078 17.65136719 60.22705078 C17.65136719 53.62705078 17.65136719 47.02705078 17.65136719 40.22705078 C37.45136719 40.22705078 57.25136719 40.22705078 77.65136719 40.22705078 C77.75449219 47.65205078 77.85761719 55.07705078 77.96386719 62.72705078 C78.00938721 65.05574219 78.05490723 67.38443359 78.10180664 69.78369141 C78.11642341 71.65021325 78.12916126 73.51675116 78.13964844 75.38330078 C78.16522827 76.3355957 78.19080811 77.28789063 78.21716309 78.26904297 C78.22142856 84.85494178 76.88076695 89.12463054 72.65136719 94.22705078 C67.46706563 99.0320132 63.7750671 100.47316176 56.71484375 100.53344727 C56.02485291 100.54177078 55.33486206 100.5500943 54.6239624 100.55867004 C52.34658124 100.58273134 50.06948692 100.59153843 47.79199219 100.59814453 C46.20261553 100.60711576 44.61323971 100.61623769 43.02386475 100.62550354 C39.69167024 100.64198693 36.35957611 100.64969211 33.02734375 100.65258789 C28.77251259 100.65796271 24.51863489 100.6956071 20.26407242 100.74133205 C16.97992578 100.77118732 13.69600604 100.77831331 10.41173553 100.77931404 C8.84413041 100.78350171 7.2765237 100.79587742 5.70905304 100.81683159 C-10.20769785 101.01262423 -10.20769785 101.01262423 -16.34863281 95.22705078 C-21.15359523 90.04274922 -22.59474379 86.3507507 -22.6550293 79.29052734 C-22.66335281 78.6005365 -22.67167633 77.91054565 -22.68025208 77.199646 C-22.70431337 74.92226484 -22.71312047 72.64517052 -22.71972656 70.36767578 C-22.72869779 68.77829912 -22.73781972 67.18892331 -22.74708557 65.59954834 C-22.76356896 62.26735383 -22.77127414 58.9352597 -22.77416992 55.60302734 C-22.77954474 51.34819619 -22.81718913 47.09431849 -22.86291409 42.83975601 C-22.89276935 39.55560937 -22.89989534 36.27168963 -22.90089607 32.98741913 C-22.90508374 31.41981401 -22.91745945 29.8522073 -22.93841362 28.28473663 C-23.13420626 12.36798575 -23.13420626 12.36798575 -17.34863281 6.22705078 C-14.78613281 3.85205078 -14.78613281 3.85205078 -12.34863281 2.22705078 C-11.81054993 1.86821808 -11.27246704 1.50938538 -10.71807861 1.13967896 C-7.19780052 -0.21620982 -3.7180365 -0.03385076 0 0 Z " fill="currentColor" transform="translate(739.3486328125,15.77294921875)"/>
<path d="M0 0 C1.03498627 -0.01248528 1.03498627 -0.01248528 2.09088135 -0.02522278 C4.36826251 -0.04928407 6.64535683 -0.05809117 8.92285156 -0.06469727 C10.51222822 -0.07366849 12.10160404 -0.08279043 13.690979 -0.09205627 C17.02317351 -0.10853966 20.35526764 -0.11624484 23.6875 -0.11914062 C27.94233116 -0.12451545 32.19620886 -0.16215984 36.45077133 -0.20788479 C39.73491797 -0.23774005 43.01883771 -0.24486605 46.30310822 -0.24586678 C47.87071334 -0.25005445 49.43832005 -0.26243016 51.00579071 -0.28338432 C66.9225416 -0.47917697 66.9225416 -0.47917697 73.06347656 5.30639648 C77.86843898 10.49069804 79.30958754 14.18269657 79.36987305 21.24291992 C79.37819656 21.93291077 79.38652008 22.62290161 79.39509583 23.33380127 C79.41915712 25.61118243 79.42796422 27.88827675 79.43457031 30.16577148 C79.44354154 31.75514814 79.45266347 33.34452396 79.46192932 34.93389893 C79.47841271 38.26609343 79.48611789 41.59818757 79.48901367 44.93041992 C79.49438849 49.18525108 79.53203288 53.43912878 79.57775784 57.69369125 C79.6076131 60.9778379 79.61473909 64.26175763 79.61573982 67.54602814 C79.61992749 69.11363326 79.6323032 70.68123997 79.65325737 72.24871063 C79.84905001 88.16546152 79.84905001 88.16546152 74.06347656 94.30639648 C68.879175 99.11135891 65.18717648 100.55250746 58.12695312 100.61279297 C57.43696228 100.62111649 56.74697144 100.62944 56.03607178 100.63801575 C53.75869062 100.66207704 51.4815963 100.67088414 49.20410156 100.67749023 C47.6147249 100.68646146 46.02534909 100.6955834 44.43597412 100.70484924 C41.10377962 100.72133263 37.77168548 100.72903781 34.43945312 100.73193359 C30.18462197 100.73730842 25.93074427 100.7749528 21.67618179 100.82067776 C18.39203515 100.85053302 15.10811542 100.85765902 11.82384491 100.85865974 C10.25623979 100.86284742 8.68863308 100.87522312 7.12116241 100.89617729 C-8.79558847 101.09196993 -8.79558847 101.09196993 -14.93652344 95.30639648 C-19.74148586 90.12209492 -21.18263441 86.4300964 -21.24291992 79.36987305 C-21.25124344 78.6798822 -21.25956696 77.98989136 -21.2681427 77.2789917 C-21.292204 75.00161054 -21.30101109 72.72451622 -21.30761719 70.44702148 C-21.31658841 68.85764483 -21.32571035 67.26826901 -21.3349762 65.67889404 C-21.35145958 62.34669954 -21.35916477 59.0146054 -21.36206055 55.68237305 C-21.36743537 51.42754189 -21.40507976 47.17366419 -21.45080471 42.91910172 C-21.48065998 39.63495507 -21.48778597 36.35103534 -21.4887867 33.06676483 C-21.49297437 31.49915971 -21.50535008 29.931553 -21.52630424 28.36408234 C-21.72209689 12.44733145 -21.72209689 12.44733145 -15.93652344 6.30639648 C-10.75222188 1.50143406 -7.06022335 0.06028551 0 0 Z M-0.93652344 20.30639648 C-0.93652344 40.10639648 -0.93652344 59.90639648 -0.93652344 80.30639648 C18.86347656 80.30639648 38.66347656 80.30639648 59.06347656 80.30639648 C59.06347656 60.50639648 59.06347656 40.70639648 59.06347656 20.30639648 C39.26347656 20.30639648 19.46347656 20.30639648 -0.93652344 20.30639648 Z " fill="currentColor" transform="translate(627.9365234375,15.693603515625)"/>
<path d="M0 0 C6.6 0 13.2 0 20 0 C20 13.2 20 26.4 20 40 C39.8 40 59.6 40 80 40 C80 26.8 80 13.6 80 0 C86.6 0 93.2 0 100 0 C100 33 100 66 100 100 C93.4 100 86.8 100 80 100 C80 86.8 80 73.6 80 60 C60.2 60 40.4 60 20 60 C20 73.2 20 86.4 20 100 C13.4 100 6.8 100 0 100 C0 67 0 34 0 0 Z " fill="#000000" transform="translate(112,16)"/>
<path d="M0 0 C33.33 0 66.66 0 101 0 C101 6.6 101 13.2 101 20 C87.8 20 74.6 20 61 20 C61 46.4 61 72.8 61 100 C54.07 100 47.14 100 40 100 C40 73.6 40 47.2 40 20 C26.8 20 13.6 20 0 20 C0 13.4 0 6.8 0 0 Z " fill="#070707" transform="translate(1,16)"/>
<path d="M0 0 C6.6 0 13.2 0 20 0 C20 26.4 20 52.8 20 80 C46.4 80 72.8 80 100 80 C100 86.6 100 93.2 100 100 C88.92517879 100.11312915 77.85074369 100.20479012 66.77547455 100.25906086 C61.63232389 100.28511304 56.48959033 100.32043112 51.34667969 100.37719727 C46.37996848 100.43167316 41.41365753 100.46145347 36.44667053 100.47438622 C34.55527957 100.48359816 32.66390959 100.50158716 30.77268982 100.52865028 C28.11556304 100.56514837 25.46007299 100.5699368 22.80273438 100.56762695 C22.02733307 100.58560333 21.25193176 100.60357971 20.45303345 100.62210083 C14.53408558 100.566721 10.62069222 98.65806381 6 95 C3.625 92.4375 3.625 92.4375 2 90 C1.6411673 89.46191711 1.28233459 88.92383423 0.91262817 88.3694458 C-0.4432606 84.84916771 -0.26090154 81.36940368 -0.22705078 77.65136719 C-0.22734283 76.81197601 -0.22763489 75.97258484 -0.22793579 75.10775757 C-0.22654409 72.33735769 -0.21099039 69.56722781 -0.1953125 66.796875 C-0.1915818 64.87445218 -0.1887351 62.95202745 -0.18673706 61.02960205 C-0.17910508 55.97268412 -0.15946027 50.91588128 -0.1373291 45.85900879 C-0.11686134 40.69768836 -0.10773335 35.53634932 -0.09765625 30.375 C-0.076214 20.24994133 -0.04103535 10.12499825 0 0 Z " fill="#000000" transform="translate(497,16)"/>
</svg>
